<svg xmlns="http://www.w3.org/2000/svg" viewBox="0 0 65.12 125"><defs><style>.cls-1{fill:#fff;}</style></defs><title>facebook-icon</title><g id="Layer_2" data-name="Layer 2"><g id="Layer_1-2" data-name="Layer 1"><path class="cls-1" d="M55.93.12,57,.18c1.09.07,2.17.16,3.25.26l3.59.31a1.85,1.85,0,0,1,.87.23c.73.5.27,3.16.26,4,0,1.62,0,3.25,0,4.88,0,3.3,0,6.61,0,9.91,0,.77-.16,1-1,1-3.38-.05-6.75-.05-10.13,0a29.13,29.13,0,0,0-4.38.3c-4.62.78-7.07,3.56-7.2,8.41-.14,5.16,0,10.33-.11,15.5,0,1,.56.78,1.1.78,6.51,0,13,0,19.53,0,1,0,1.4,0,1.23,1.28-.91,6.6-1.73,13.21-2.55,19.83-.11.87-.39,1.18-1.34,1.17-5.61,0-11.23,0-16.84,0-.79,0-1.13.12-1.13,1q0,27.71,0,55.41c0,.2,0,.4.06.6H19.31c0-.45-.06-.89-.06-1.34q0-27.15,0-54.32c0-1.12-.28-1.41-1.4-1.4-5.57.06-11.15,0-16.72,0C.25,68,0,67.81,0,66.87q.08-10,0-20c0-.92.24-1.14,1.15-1.13,5.65,0,11.31,0,17,0,.92,0,1.16-.22,1.16-1.15,0-5.94-.14-11.89.09-17.82.28-7,2.37-13.5,7.35-18.75A25.84,25.84,0,0,1,40.46.69,25.8,25.8,0,0,1,45.62,0h2.26C50.56,0,53.25,0,55.93.12Z"/></g></g></svg>