<svg xmlns="http://www.w3.org/2000/svg" viewBox="0 0 125.45 125"><defs><style>.cls-1{fill:#fff;}</style></defs><title>instagram-icon</title><g id="Layer_2" data-name="Layer 2"><g id="Layer_1-2" data-name="Layer 1"><path class="cls-1" d="M125.37,41.84c-.05-1.94-.12-3.88-.23-5.81a48,48,0,0,0-2.7-14.18,30.9,30.9,0,0,0-9.16-13.29C106.69,3.05,98.85.9,90.52.31,85.21-.06,79.88,0,74.57,0,64.13,0,53.69-.06,43.25.12c-3.45.06-6.9,0-10.34.4a38.72,38.72,0,0,0-14,4C9.68,9.34,4.12,17,1.81,27.15c-2,9-1.43,18.42-1.42,27.56,0,13.45-1.37,27.83,1,41.13,1.26,7,4,13.28,9,18.46,9.12,9.43,21.13,10.38,33.46,10.56q15.87.23,31.76.09c9.21-.08,19.73.84,28.38-3a30.54,30.54,0,0,0,13.92-10.49c4.86-6.54,6.92-14,7.22-22.12.34-9,.37-17.94.31-26.92C125.39,55.59,125.53,48.69,125.37,41.84Zm-11.48,43a53.8,53.8,0,0,1-1.54,11.93c-2.36,8.55-8,13.7-16.61,15.6-5.75,1.26-11.61,1.32-17.45,1.36-11.79.08-23.57.12-35.35-.14A61.65,61.65,0,0,1,28.8,112c-9-2.32-14.14-8.37-16.1-17.31a56.35,56.35,0,0,1-1.19-11.86q-.07-19.81,0-39.62a63.37,63.37,0,0,1,1.6-14.5c2.26-9.38,8.29-14.64,17.63-16.37,6-1.12,12.13-.94,18.22-1,3.94-.06,7.89-.2,11.82-.06,8.61.31,17.22-.25,25.82.35a45.76,45.76,0,0,1,13.22,2.5c7.55,2.86,11.53,8.59,13.07,16.28,1.08,5.45,1,11,1.11,16.51.11,4.63,0,9.26,0,13.9C114.09,68.78,114.23,76.79,113.89,84.79Zm-17.64-63a7.47,7.47,0,1,0,7.47,7.49A7.44,7.44,0,0,0,96.25,21.78ZM63,30.51a32,32,0,1,0,32,32A32,32,0,0,0,63,30.51Zm-.11,52.81A20.78,20.78,0,1,1,83.72,62.66,20.72,20.72,0,0,1,62.89,83.32Z"/><path class="cls-1" d="M63,30.51a32,32,0,1,0,32,32A32,32,0,0,0,63,30.51Zm-.11,52.81A20.78,20.78,0,1,1,83.72,62.66,20.72,20.72,0,0,1,62.89,83.32Z"/><path class="cls-1" d="M103.72,29.27a7.48,7.48,0,1,1-7.47-7.49A7.44,7.44,0,0,1,103.72,29.27Z"/></g></g></svg>