<svg xmlns="http://www.w3.org/2000/svg" viewBox="0 0 125 125.01"><defs><style>.cls-1{fill:#fff;}</style></defs><title>linkedin-icon</title><g id="Layer_2" data-name="Layer 2"><g id="Layer_1-2" data-name="Layer 1"><path class="cls-1" d="M69.34,52.92a25,25,0,0,1,7.77-8.44c6.6-4.5,14-5.45,21.7-4.72a30.85,30.85,0,0,1,12.49,3.58c6.34,3.57,9.72,9.3,11.57,16.11C124.65,66,125,72.68,125,79.39c0,14.64,0,29.28,0,43.92,0,1-.1,1.5-1.35,1.49q-11.67-.1-23.33,0c-1.14,0-1.29-.38-1.29-1.38q0-20.9,0-41.79a44,44,0,0,0-.79-8.79c-1.74-8.69-7.34-11.41-15.07-10.51-7.29.84-11.26,5.15-12.44,13a57,57,0,0,0-.6,8.66c0,13.17,0,26.33,0,39.5,0,1.15-.22,1.53-1.46,1.52q-11.59-.09-23.18,0c-1.09,0-1.33-.31-1.33-1.36q0-40.41,0-80.83c0-1,.18-1.31,1.23-1.3q11.22.06,22.42,0c1.09,0,1.25.39,1.24,1.32,0,2.85,0,5.7,0,8.54C69.06,51.85,68.86,52.38,69.34,52.92Z"/><path class="cls-1" d="M2.07,83.24c0-13.36,0-26.72,0-40.08,0-1.35.32-1.67,1.66-1.66,7.57.07,15.14.06,22.71,0,1.22,0,1.63.22,1.62,1.54Q28,83.28,28,123.52c0,1.23-.34,1.5-1.51,1.49q-11.51-.09-23,0C2.23,125,2,124.6,2,123.48Q2.1,103.36,2.07,83.24Z"/><path class="cls-1" d="M30,15A15.13,15.13,0,0,1,15.11,30.15,15.08,15.08,0,0,1,14.9,0,15,15,0,0,1,30,15Z"/></g></g></svg>