<svg xmlns="http://www.w3.org/2000/svg" viewBox="0 0 150 17.66"><defs><style>.cls-1{fill:#fff;}</style></defs><title>logo-white</title><g id="Layer_2" data-name="Layer 2"><g id="Layer_1-2" data-name="Layer 1"><path class="cls-1" d="M0,15.74,1.69,13a8.31,8.31,0,0,0,4.42,1.48c.78,0,1.14-.24,1.14-.69v0c0-.5-.71-.71-2.07-1.09C2.64,12,.62,11.13.62,8.53v0c0-2.74,2.19-4.26,5.16-4.26a10.1,10.1,0,0,1,5.3,1.5L9.53,8.58a8.65,8.65,0,0,0-3.8-1.19c-.69,0-1.05.26-1.05.62v.05c0,.5.74.74,2.1,1.14,2.54.71,4.56,1.59,4.56,4.09v.05c0,2.83-2.12,4.3-5.25,4.3A10.39,10.39,0,0,1,0,15.74Z"/><path class="cls-1" d="M13.19,4.49h4.52V6.25a4.71,4.71,0,0,1,3.82-2A3.94,3.94,0,0,1,25.24,6.3a5.43,5.43,0,0,1,4.31-2.09c2.73,0,4.39,1.71,4.39,4.7v8.44H29.43v-7c0-1.4-.69-2.13-1.76-2.13s-1.86.73-1.86,2.13v7H21.3v-7c0-1.4-.69-2.13-1.76-2.13s-1.83.73-1.83,2.13v7H13.19Z"/><path class="cls-1" d="M35.63,13.67v-.05c0-2.66,2-4,5-4a9.91,9.91,0,0,1,3.09.5V9.87c0-1.34-.83-2.1-2.57-2.1a8.92,8.92,0,0,0-3.54.72L36.72,5.3a13,13,0,0,1,5.21-1c2.3,0,3.87.55,4.89,1.57A5.35,5.35,0,0,1,48.2,10v7.39H43.73V16A4.83,4.83,0,0,1,40,17.64C37.51,17.64,35.63,16.24,35.63,13.67Zm8.18-1V12.1a4.8,4.8,0,0,0-1.76-.33c-1.31,0-2.07.64-2.07,1.59v.05a1.41,1.41,0,0,0,1.59,1.4A2.07,2.07,0,0,0,43.81,12.69Z"/><path class="cls-1" d="M50.51,4.49H55V7.08a3.94,3.94,0,0,1,4.07-2.8V9h-.38C56.35,9,55,10.39,55,13.36v4H50.51Z"/><path class="cls-1" d="M61.46,13.36V8.13H59.94V4.49h1.52V1.24H66V4.49h3V8.13H66v4.35c0,.9.4,1.28,1.24,1.28a4,4,0,0,0,1.71-.42v3.54a6.47,6.47,0,0,1-3.14.74C63.08,17.62,61.46,16.43,61.46,13.36Z"/><path class="cls-1" d="M76.94.59h4.44l7.09,16.76h-5l-1.21-3H75.89l-1.19,3H69.85Zm4,10.2L79.12,6.06l-1.87,4.73Z"/><path class="cls-1" d="M94.33,15.78v1.57H89.82V0h4.51V6.2a4.73,4.73,0,0,1,3.9-2c3.07,0,5.71,2.54,5.71,6.65v.05c0,4.19-2.64,6.73-5.68,6.73A4.84,4.84,0,0,1,94.33,15.78Zm5.16-4.84v0a2.64,2.64,0,1,0-5.25,0v0a2.64,2.64,0,1,0,5.25,0Z"/><path class="cls-1" d="M105.36,11v0a7.12,7.12,0,0,1,14.22,0v0a7.12,7.12,0,0,1-14.22,0Zm9.82,0v0A2.79,2.79,0,0,0,112.45,8a2.7,2.7,0,0,0-2.69,2.86v0a2.79,2.79,0,0,0,2.73,2.9A2.7,2.7,0,0,0,115.18,11Z"/><path class="cls-1" d="M121,11v0c0-4.19,2.62-6.73,5.66-6.73a4.9,4.9,0,0,1,3.94,1.85V0h4.52V17.35H130.6V15.64a4.74,4.74,0,0,1-3.92,2C123.64,17.64,121,15.1,121,11Zm9.68,0v0a2.64,2.64,0,1,0-5.26,0v0a2.64,2.64,0,1,0,5.26,0Z"/><path class="cls-1" d="M137,11v0a6.45,6.45,0,0,1,6.49-6.73c4.45,0,6.49,3.25,6.49,7,0,.29,0,.62,0,.93h-8.61a2.66,2.66,0,0,0,2.78,2.12A3.88,3.88,0,0,0,147,13l2.5,2.07a6.74,6.74,0,0,1-5.59,2.61C139.87,17.66,137,15,137,11Zm8.75-1.11c-.17-1.43-1-2.33-2.24-2.33s-2,.92-2.23,2.33Z"/></g></g></svg>