<svg xmlns="http://www.w3.org/2000/svg" viewBox="0 0 397.81 846.89"><defs><style>.cls-1{fill:none;stroke:#c8aff8;stroke-miterlimit:10;}</style></defs><title>purple ribbon</title><g id="Layer_2" data-name="Layer 2"><g id="Layer_1-2" data-name="Layer 1"><path class="cls-1" d="M97.59.49C33.27,10-6.74,65.65,1.59,114.49c7,40.69,47.39,76.27,90,75,28-.84,66.51-9.11,72-51,3.83-29.2-20.82-60.11-57-57-33.78,2.9-55.31,34.69-46.49,62.89,18.33,58.67,74.55,37.05,145.48,96.1,18.56,15.45,36.25,32.38,48.5,53.43,15.22,26.14,22.24,66.73,7,94.42a50.91,50.91,0,0,1-29.76,24c-28,8.32-54.62-9.44-61.78-36.87-18-69,77.8-131.75,147-114,32.07,8.23,62.83,39.54,72,78,28,117.69-171.14,197.84-163.15,323.66,3,46.65,35.14,111.24,172.15,183.31"/></g></g></svg>