<svg xmlns="http://www.w3.org/2000/svg" viewBox="0 0 339.68 287.33"><defs><style>.cls-1{fill:#004ac2;opacity:0.1;}</style></defs><title>Asset 8</title><g id="Layer_2" data-name="Layer 2"><g id="Layer_1-2" data-name="Layer 1"><path class="cls-1" d="M203,34.53C162.37,22.07,140.29,15.31,140.29,0H19.1q-.57,6.42-.58,13.17V14.6c0,77.61,60.53,103.25,136.72,123.19,40.59,11.39,62,17.8,62,32.76V172c0,13.53-10.68,20.65-34.19,20.65-39.87,0-88.29-15-132.44-44.15L0,230.36c53.41,38.46,117.5,57,182.3,57,94,0,157.38-44.15,157.38-128.89V157C339.68,82.25,279.15,55.9,203,34.53Z"/></g></g></svg>