<svg xmlns="http://www.w3.org/2000/svg" viewBox="0 0 122.13 125"><defs><style>.cls-1{fill:#fff;}</style></defs><title>twitter-x-icon</title><g id="Layer_2" data-name="Layer 2"><g id="Layer_1-2" data-name="Layer 1"><path class="cls-1" d="M121.44,123.78q-24-34.9-48-69.79c-.53-.78-.63-1.23.06-2q11.72-13.5,23.34-27.08Q107.57,12.46,118.24,0H107.5a5.12,5.12,0,0,0-1.56,1.33c-3.25,3.8-6.48,7.6-9.76,11.37-4.31,5-8.58,10-12.88,15-4.88,5.66-9.76,11.31-14.6,17-.63.74-.88.62-1.36-.09-4.51-6.67-9.12-13.26-13.66-19.91Q45.94,13.35,38.16,2.05a6.3,6.3,0,0,0-1.69-2H.1A2.88,2.88,0,0,0,.77,1.13Q23.92,34.84,47.09,68.51A1.28,1.28,0,0,1,47,70.42Q26.31,94.35,5.71,118.31L0,125c3.44,0,6.65,0,9.86,0a1.82,1.82,0,0,0,1.53-.72q14.5-16.9,29-33.77l12.06-14c.29.38.55.69.77,1q16,23.3,32,46.61a1.75,1.75,0,0,0,1.67.87c11.39,0,22.78,0,34.17,0,.33,0,.71.17,1-.17C121.89,124.45,121.67,124.11,121.44,123.78Zm-15.28-6.58c-4.72,0-9.43,0-14.15,0a1.79,1.79,0,0,1-1.7-.85Q61.09,74.51,31.83,32.67L15.63,9.51c-.28-.4-.55-.81-.82-1.19.21-.38.53-.21.78-.21,4.88,0,9.75,0,14.64,0a1.57,1.57,0,0,1,1.51.73q37.71,54,75.45,108a3.76,3.76,0,0,1,.15.43Z"/></g></g></svg>